<?xml version="1.0" encoding="UTF-8" standalone="no"?><svg xmlns="http://www.w3.org/2000/svg" xmlns:xlink="http://www.w3.org/1999/xlink" contentScriptType="application/ecmascript" contentStyleType="text/css" height="347px" preserveAspectRatio="none" style="width:366px;height:347px;" version="1.1" viewBox="0 0 366 347" width="366px" zoomAndPan="magnify"><defs><filter height="300%" id="f1nwd5gfvwhd0s" width="300%" x="-1" y="-1"><feGaussianBlur result="blurOut" stdDeviation="2.0"/><feColorMatrix in="blurOut" result="blurOut2" type="matrix" values="0 0 0 0 0 0 0 0 0 0 0 0 0 0 0 0 0 0 .4 0"/><feOffset dx="4.0" dy="4.0" in="blurOut2" result="blurOut3"/><feBlend in="SourceGraphic" in2="blurOut3" mode="normal"/></filter></defs><g><line style="stroke: #A80036; stroke-width: 1.0; stroke-dasharray: 5.0,5.0;" x1="27" x2="27" y1="87.6094" y2="259.3672"/><line style="stroke: #A80036; stroke-width: 1.0; stroke-dasharray: 5.0,5.0;" x1="122" x2="122" y1="87.6094" y2="259.3672"/><line style="stroke: #A80036; stroke-width: 1.0; stroke-dasharray: 5.0,5.0;" x1="176" x2="176" y1="87.6094" y2="259.3672"/><line style="stroke: #A80036; stroke-width: 1.0; stroke-dasharray: 5.0,5.0;" x1="225" x2="225" y1="87.6094" y2="259.3672"/><line style="stroke: #A80036; stroke-width: 1.0; stroke-dasharray: 5.0,5.0;" x1="274" x2="274" y1="87.6094" y2="259.3672"/><line style="stroke: #A80036; stroke-width: 1.0; stroke-dasharray: 5.0,5.0;" x1="331" x2="331" y1="87.6094" y2="259.3672"/><text fill="#000000" font-family="sans-serif" font-size="14" lengthAdjust="spacingAndGlyphs" textLength="33" x="8" y="84.5332">Foo1</text><ellipse cx="27.5" cy="13" fill="#FEFECE" filter="url(#f1nwd5gfvwhd0s)" rx="8" ry="8" style="stroke: #A80036; stroke-width: 2.0;"/><path d="M27.5,21 L27.5,48 M14.5,29 L40.5,29 M27.5,48 L14.5,63 M27.5,48 L40.5,63 " fill="none" filter="url(#f1nwd5gfvwhd0s)" style="stroke: #A80036; stroke-width: 2.0;"/><text fill="#000000" font-family="sans-serif" font-size="14" lengthAdjust="spacingAndGlyphs" textLength="33" x="8" y="272.9004">Foo1</text><ellipse cx="27.5" cy="285.9766" fill="#FEFECE" filter="url(#f1nwd5gfvwhd0s)" rx="8" ry="8" style="stroke: #A80036; stroke-width: 2.0;"/><path d="M27.5,293.9766 L27.5,320.9766 M14.5,301.9766 L40.5,301.9766 M27.5,320.9766 L14.5,335.9766 M27.5,320.9766 L40.5,335.9766 " fill="none" filter="url(#f1nwd5gfvwhd0s)" style="stroke: #A80036; stroke-width: 2.0;"/><text fill="#000000" font-family="sans-serif" font-size="14" lengthAdjust="spacingAndGlyphs" textLength="33" x="103" y="84.5332">Foo2</text><path d="M102,42 L102,66 M102,54 L119,54 " fill="none" filter="url(#f1nwd5gfvwhd0s)" style="stroke: #A80036; stroke-width: 2.0;"/><ellipse cx="131" cy="54" fill="#FEFECE" filter="url(#f1nwd5gfvwhd0s)" rx="12" ry="12" style="stroke: #A80036; stroke-width: 2.0;"/><text fill="#000000" font-family="sans-serif" font-size="14" lengthAdjust="spacingAndGlyphs" textLength="33" x="103" y="272.9004">Foo2</text><path d="M102,279.9766 L102,303.9766 M102,291.9766 L119,291.9766 " fill="none" filter="url(#f1nwd5gfvwhd0s)" style="stroke: #A80036; stroke-width: 2.0;"/><ellipse cx="131" cy="291.9766" fill="#FEFECE" filter="url(#f1nwd5gfvwhd0s)" rx="12" ry="12" style="stroke: #A80036; stroke-width: 2.0;"/><text fill="#000000" font-family="sans-serif" font-size="14" lengthAdjust="spacingAndGlyphs" textLength="33" x="157" y="84.5332">Foo3</text><ellipse cx="176.5" cy="54" fill="#FEFECE" filter="url(#f1nwd5gfvwhd0s)" rx="12" ry="12" style="stroke: #A80036; stroke-width: 2.0;"/><polygon fill="#A80036" points="172.5,42,178.5,37,176.5,42,178.5,47,172.5,42" style="stroke: #A80036; stroke-width: 1.0;"/><text fill="#000000" font-family="sans-serif" font-size="14" lengthAdjust="spacingAndGlyphs" textLength="33" x="157" y="272.9004">Foo3</text><ellipse cx="176.5" cy="291.9766" fill="#FEFECE" filter="url(#f1nwd5gfvwhd0s)" rx="12" ry="12" style="stroke: #A80036; stroke-width: 2.0;"/><polygon fill="#A80036" points="172.5,279.9766,178.5,274.9766,176.5,279.9766,178.5,284.9766,172.5,279.9766" style="stroke: #A80036; stroke-width: 1.0;"/><text fill="#000000" font-family="sans-serif" font-size="14" lengthAdjust="spacingAndGlyphs" textLength="33" x="206" y="84.5332">Foo4</text><ellipse cx="225.5" cy="54" fill="#FEFECE" filter="url(#f1nwd5gfvwhd0s)" rx="12" ry="12" style="stroke: #A80036; stroke-width: 2.0;"/><line style="stroke: #A80036; stroke-width: 2.0;" x1="213.5" x2="237.5" y1="68" y2="68"/><text fill="#000000" font-family="sans-serif" font-size="14" lengthAdjust="spacingAndGlyphs" textLength="33" x="206" y="272.9004">Foo4</text><ellipse cx="225.5" cy="291.9766" fill="#FEFECE" filter="url(#f1nwd5gfvwhd0s)" rx="12" ry="12" style="stroke: #A80036; stroke-width: 2.0;"/><line style="stroke: #A80036; stroke-width: 2.0;" x1="213.5" x2="237.5" y1="305.9766" y2="305.9766"/><text fill="#000000" font-family="sans-serif" font-size="14" lengthAdjust="spacingAndGlyphs" textLength="33" x="255" y="84.5332">Foo5</text><path d="M256.5,34 C256.5,24 274.5,24 274.5,24 C274.5,24 292.5,24 292.5,34 L292.5,60 C292.5,70 274.5,70 274.5,70 C274.5,70 256.5,70 256.5,60 L256.5,34 " fill="#FEFECE" filter="url(#f1nwd5gfvwhd0s)" style="stroke: #000000; stroke-width: 1.5;"/><path d="M256.5,34 C256.5,44 274.5,44 274.5,44 C274.5,44 292.5,44 292.5,34 " fill="none" style="stroke: #000000; stroke-width: 1.5;"/><text fill="#000000" font-family="sans-serif" font-size="14" lengthAdjust="spacingAndGlyphs" textLength="33" x="255" y="272.9004">Foo5</text><path d="M256.5,285.9766 C256.5,275.9766 274.5,275.9766 274.5,275.9766 C274.5,275.9766 292.5,275.9766 292.5,285.9766 L292.5,311.9766 C292.5,321.9766 274.5,321.9766 274.5,321.9766 C274.5,321.9766 256.5,321.9766 256.5,311.9766 L256.5,285.9766 " fill="#FEFECE" filter="url(#f1nwd5gfvwhd0s)" style="stroke: #000000; stroke-width: 1.5;"/><path d="M256.5,285.9766 C256.5,295.9766 274.5,295.9766 274.5,295.9766 C274.5,295.9766 292.5,295.9766 292.5,285.9766 " fill="none" style="stroke: #000000; stroke-width: 1.5;"/><rect fill="#FEFECE" filter="url(#f1nwd5gfvwhd0s)" height="31.6094" style="stroke: #A80036; stroke-width: 1.5;" width="47" x="308" y="47"/><rect fill="#FEFECE" filter="url(#f1nwd5gfvwhd0s)" height="31.6094" style="stroke: #A80036; stroke-width: 1.5;" width="47" x="304" y="51"/><text fill="#000000" font-family="sans-serif" font-size="14" lengthAdjust="spacingAndGlyphs" textLength="33" x="311" y="72.5332">Foo6</text><rect fill="#FEFECE" filter="url(#f1nwd5gfvwhd0s)" height="31.6094" style="stroke: #A80036; stroke-width: 1.5;" width="47" x="308" y="258.3672"/><rect fill="#FEFECE" filter="url(#f1nwd5gfvwhd0s)" height="31.6094" style="stroke: #A80036; stroke-width: 1.5;" width="47" x="304" y="262.3672"/><text fill="#000000" font-family="sans-serif" font-size="14" lengthAdjust="spacingAndGlyphs" textLength="33" x="311" y="283.9004">Foo6</text><polygon fill="#A80036" points="110.5,115.9609,120.5,119.9609,110.5,123.9609,114.5,119.9609" style="stroke: #A80036; stroke-width: 1.0;"/><line style="stroke: #A80036; stroke-width: 1.0;" x1="27.5" x2="116.5" y1="119.9609" y2="119.9609"/><text fill="#000000" font-family="sans-serif" font-size="13" lengthAdjust="spacingAndGlyphs" textLength="71" x="34.5" y="115.1045">To boundary</text><polygon fill="#A80036" points="164.5,146.3125,174.5,150.3125,164.5,154.3125,168.5,150.3125" style="stroke: #A80036; stroke-width: 1.0;"/><line style="stroke: #A80036; stroke-width: 1.0;" x1="27.5" x2="170.5" y1="150.3125" y2="150.3125"/><text fill="#000000" font-family="sans-serif" font-size="13" lengthAdjust="spacingAndGlyphs" textLength="57" x="34.5" y="145.4561">To control</text><polygon fill="#A80036" points="213.5,176.6641,223.5,180.6641,213.5,184.6641,217.5,180.6641" style="stroke: #A80036; stroke-width: 1.0;"/><line style="stroke: #A80036; stroke-width: 1.0;" x1="27.5" x2="219.5" y1="180.6641" y2="180.6641"/><text fill="#000000" font-family="sans-serif" font-size="13" lengthAdjust="spacingAndGlyphs" textLength="50" x="34.5" y="175.8076">To entity</text><polygon fill="#A80036" points="262.5,207.0156,272.5,211.0156,262.5,215.0156,266.5,211.0156" style="stroke: #A80036; stroke-width: 1.0;"/><line style="stroke: #A80036; stroke-width: 1.0;" x1="27.5" x2="268.5" y1="211.0156" y2="211.0156"/><text fill="#000000" font-family="sans-serif" font-size="13" lengthAdjust="spacingAndGlyphs" textLength="71" x="34.5" y="206.1592">To database</text><polygon fill="#A80036" points="319.5,237.3672,329.5,241.3672,319.5,245.3672,323.5,241.3672" style="stroke: #A80036; stroke-width: 1.0;"/><line style="stroke: #A80036; stroke-width: 1.0;" x1="27.5" x2="325.5" y1="241.3672" y2="241.3672"/><text fill="#000000" font-family="sans-serif" font-size="13" lengthAdjust="spacingAndGlyphs" textLength="80" x="34.5" y="236.5107">To collections</text><!--
@startuml
actor Foo1
boundary Foo2
control Foo3
entity Foo4
database Foo5
collections Foo6
Foo1 -> Foo2 : To boundary
Foo1 -> Foo3 : To control
Foo1 -> Foo4 : To entity
Foo1 -> Foo5 : To database
Foo1 -> Foo6 : To collections
@enduml

PlantUML version 1.2019.01(Sat Feb 09 17:32:04 EET 2019)
(GPL source distribution)
Java Runtime: OpenJDK Runtime Environment
JVM: OpenJDK 64-Bit Server VM
Java Version: 11.0.2+9
Operating System: Windows 10
OS Version: 10.0
Default Encoding: Cp1252
Language: en
Country: US
--></g></svg>