<?xml version="1.0" encoding="UTF-8" standalone="no"?><svg xmlns="http://www.w3.org/2000/svg" xmlns:xlink="http://www.w3.org/1999/xlink" contentScriptType="application/ecmascript" contentStyleType="text/css" height="287px" preserveAspectRatio="none" style="width:339px;height:287px;" version="1.1" viewBox="0 0 339 287" width="339px" zoomAndPan="magnify"><defs><filter height="300%" id="f86piaijiism8" width="300%" x="-1" y="-1"><feGaussianBlur result="blurOut" stdDeviation="2.0"/><feColorMatrix in="blurOut" result="blurOut2" type="matrix" values="0 0 0 0 0 0 0 0 0 0 0 0 0 0 0 0 0 0 .4 0"/><feOffset dx="4.0" dy="4.0" in="blurOut2" result="blurOut3"/><feBlend in="SourceGraphic" in2="blurOut3" mode="normal"/></filter></defs><g><line style="stroke: #A80036; stroke-width: 1.0; stroke-dasharray: 5.0,5.0;" x1="23" x2="23" y1="87.6094" y2="198.6641"/><line style="stroke: #A80036; stroke-width: 1.0; stroke-dasharray: 5.0,5.0;" x1="192.5" x2="192.5" y1="87.6094" y2="198.6641"/><line style="stroke: #A80036; stroke-width: 1.0; stroke-dasharray: 5.0,5.0;" x1="279.5" x2="279.5" y1="87.6094" y2="198.6641"/><text fill="#000000" font-family="sans-serif" font-size="14" lengthAdjust="spacingAndGlyphs" textLength="25" x="8" y="84.5332">Bob</text><ellipse cx="23.5" cy="13" fill="#FF0000" filter="url(#f86piaijiism8)" rx="8" ry="8" style="stroke: #A80036; stroke-width: 2.0;"/><path d="M23.5,21 L23.5,48 M10.5,29 L36.5,29 M23.5,48 L10.5,63 M23.5,48 L36.5,63 " fill="none" filter="url(#f86piaijiism8)" style="stroke: #A80036; stroke-width: 2.0;"/><text fill="#000000" font-family="sans-serif" font-size="14" lengthAdjust="spacingAndGlyphs" textLength="25" x="8" y="212.1973">Bob</text><ellipse cx="23.5" cy="225.2734" fill="#FF0000" filter="url(#f86piaijiism8)" rx="8" ry="8" style="stroke: #A80036; stroke-width: 2.0;"/><path d="M23.5,233.2734 L23.5,260.2734 M10.5,241.2734 L36.5,241.2734 M23.5,260.2734 L10.5,275.2734 M23.5,260.2734 L36.5,275.2734 " fill="none" filter="url(#f86piaijiism8)" style="stroke: #A80036; stroke-width: 2.0;"/><rect fill="#FEFECE" filter="url(#f86piaijiism8)" height="31.6094" style="stroke: #A80036; stroke-width: 1.5;" width="44" x="168.5" y="51"/><text fill="#000000" font-family="sans-serif" font-size="14" lengthAdjust="spacingAndGlyphs" textLength="30" x="175.5" y="72.5332">Alice</text><rect fill="#FEFECE" filter="url(#f86piaijiism8)" height="31.6094" style="stroke: #A80036; stroke-width: 1.5;" width="44" x="168.5" y="197.6641"/><text fill="#000000" font-family="sans-serif" font-size="14" lengthAdjust="spacingAndGlyphs" textLength="30" x="175.5" y="219.1973">Alice</text><rect fill="#99FF99" filter="url(#f86piaijiism8)" height="49.2188" style="stroke: #A80036; stroke-width: 1.5;" width="102" x="226.5" y="33.3906"/><text fill="#000000" font-family="sans-serif" font-size="14" lengthAdjust="spacingAndGlyphs" textLength="88" x="233.5" y="54.9238">I have a really</text><text fill="#000000" font-family="sans-serif" font-size="14" lengthAdjust="spacingAndGlyphs" textLength="66" x="244.5" y="72.5332">long name</text><rect fill="#99FF99" filter="url(#f86piaijiism8)" height="49.2188" style="stroke: #A80036; stroke-width: 1.5;" width="102" x="226.5" y="197.6641"/><text fill="#000000" font-family="sans-serif" font-size="14" lengthAdjust="spacingAndGlyphs" textLength="88" x="233.5" y="219.1973">I have a really</text><text fill="#000000" font-family="sans-serif" font-size="14" lengthAdjust="spacingAndGlyphs" textLength="66" x="244.5" y="236.8066">long name</text><polygon fill="#A80036" points="34.5,115.9609,24.5,119.9609,34.5,123.9609,30.5,119.9609" style="stroke: #A80036; stroke-width: 1.0;"/><line style="stroke: #A80036; stroke-width: 1.0;" x1="28.5" x2="191.5" y1="119.9609" y2="119.9609"/><text fill="#000000" font-family="sans-serif" font-size="13" lengthAdjust="spacingAndGlyphs" textLength="135" x="40.5" y="115.1045">Authentication Request</text><polygon fill="#A80036" points="180.5,146.3125,190.5,150.3125,180.5,154.3125,184.5,150.3125" style="stroke: #A80036; stroke-width: 1.0;"/><line style="stroke: #A80036; stroke-width: 1.0;" x1="23.5" x2="186.5" y1="150.3125" y2="150.3125"/><text fill="#000000" font-family="sans-serif" font-size="13" lengthAdjust="spacingAndGlyphs" textLength="145" x="30.5" y="145.4561">Authentication Response</text><polygon fill="#A80036" points="267.5,176.6641,277.5,180.6641,267.5,184.6641,271.5,180.6641" style="stroke: #A80036; stroke-width: 1.0;"/><line style="stroke: #A80036; stroke-width: 1.0;" x1="23.5" x2="273.5" y1="180.6641" y2="180.6641"/><text fill="#000000" font-family="sans-serif" font-size="13" lengthAdjust="spacingAndGlyphs" textLength="89" x="30.5" y="175.8076">Log transaction</text><!--
@startuml
actor Bob #red
participant Alice
participant "I have a really\nlong name" as L #99FF99

Alice->Bob: Authentication Request
Bob->Alice: Authentication Response
Bob->L: Log transaction
@enduml

PlantUML version 1.2019.01(Sat Feb 09 17:32:04 EET 2019)
(GPL source distribution)
Java Runtime: OpenJDK Runtime Environment
JVM: OpenJDK 64-Bit Server VM
Java Version: 11.0.2+9
Operating System: Windows 10
OS Version: 10.0
Default Encoding: Cp1252
Language: en
Country: US
--></g></svg>